<svg viewBox="0 0 1000 1000" xmlns="http://www.w3.org/2000/svg"><title>Bewitching Red Pirate Mangolien</title><style type="text/css"> .m {fill: #F0CD09;} .b {stroke: #000000; stroke-width: 10; stroke-linejoin: round;}.b1{stroke: #000000; stroke-width: 4; stroke-linejoin: round;}.sh {fill-opacity: 0.1;} .c{fill:#f05a09;} .bg{fill:White}</style><rect width="1000" height="1000" class="bg"/><path class="cape6 c b" d="M155 787c230 66 511-190 720-87 250 123-201-226-257-278C428 265 456 310 242 543 56 797 36 753 155 787z" /><path class="mango m b" d="M551 355c0-163 21-147-78-146 -95 0-75-13-78 150 -80 50-141 75-150 169 -15 161 80 239 101 264 7 5 28 68 102 74C566 876 608 463 551 355z" /><path d="M709 496c-87-107-85-109-160-141 0 0-11 13-80 26 63 58-16 433 23 468 50 45 107-103 100-192 0-4 1-3 9-7 17-13 7-1 94-116C697 533 713 504 709 496zM662 510c-12 11-27 42-30 58 -14 20-23 38-38 43 -6 2-2 1-7-24 -9-59 13-95 25-133C637 488 670 500 662 510z" /><path class="hand3 m" d="M586 658c-9 7-19 12-28 21 -14 16-19 7-5-5 10-9 7-9-1-1 -3 3-17 21-18 9 4-9 14-15 19-25 -9-1-21 9-31 10 -12-5 13-15 26-19 -5-1-17 6-24 9 -4 2-8-3-4-6 3-4 48-19 35-23 -6-3-17-3-16-12 0-3 3-3 5-2 8 5 18 5 27 7C593 624 604 645 586 658z" /><g class="mouth"><path d="M504 309c-64 1-44-3-65 5C463 310 476 316 504 309z" /><path d="M497 331c-14-4-49-5-46 4C461 332 510 338 497 331z" /></g><path class="helmet2" d="M604 122c-16-23-51-2-40 23 2 5-8 10-16 18 -38-45-113-45-151 0 -7-8-18-13-16-18 12-25-24-46-40-23 -13 18 4 43 26 36 2-1 0-2 19 19 -15 31 4 151 4 150 120-59 42-59 163 0 1 2 18-131 4-150 19-21 17-20 19-19C600 165 617 141 604 122z" /><g class="visor3 m"><polygon points="459 266 408 260 395 226 459 238 " /><polygon points="486 266 537 260 551 226 486 238 " /></g><g class="eyes1"><path d="M504 249c-2 9 30 7 30 1C523 233 513 235 504 249zM507 251c1 0 7-3 25 1C519 255 511 254 507 251z" /><path d="M420 251c0 6 32 8 30-1C441 236 431 234 420 251zM423 252c12-5 25 0 25 0S435 256 423 252z" /></g><path class="pch0" d="M509 240c-27-17-26-12-23-17 8 4 18 9 27 14 9-1 22 6 22 14 4 3 18 14 23 17 -3 6 1 6-25-13C523 272 492 258 509 240z" /><polygon class="sh" points="550 345 471 367 471 164 556 215 " /><path class="fastener9 c b1" d="M557 506C455 494 524 441 473 401c-53 42 21 92-83 105 0 0 0-1 0-1 0-2 1-3 3-3 33-8 43-17 43-28 0-18-31-38-31-58 0-9 6-17 25-25-30 10-53 14-71 14-22 0-34-6-34-15 0-13 74-32 74-32s56 20 74 20c16 0 73-19 73-19s77 21 77 34c0 7-8 12-28 12-17 0-42-4-78-14 20 10 26 19 26 28 0 19-31 35-31 53 0 11 11 22 48 35H557z" /></svg>